<svg width="34" height="33" viewBox="0 0 34 33" fill="none" xmlns="http://www.w3.org/2000/svg">
<rect x="1" y="1" width="32" height="30.9933" stroke="white" stroke-width="2"/>
<path d="M13.4448 20.52H8.20484L7.36484 23H3.78484L8.86484 8.96H12.8248L17.9048 23H14.2848L13.4448 20.52ZM12.5648 17.88L10.8248 12.74L9.10484 17.88H12.5648ZM29.9709 17.24C29.9709 17.56 29.9509 17.8933 29.9109 18.24H22.1709C22.2243 18.9333 22.4443 19.4667 22.8309 19.84C23.2309 20.2 23.7176 20.38 24.2909 20.38C25.1443 20.38 25.7376 20.02 26.0709 19.3H29.7109C29.5243 20.0333 29.1843 20.6933 28.6909 21.28C28.2109 21.8667 27.6043 22.3267 26.8709 22.66C26.1376 22.9933 25.3176 23.16 24.4109 23.16C23.3176 23.16 22.3443 22.9267 21.4909 22.46C20.6376 21.9933 19.9709 21.3267 19.4909 20.46C19.0109 19.5933 18.7709 18.58 18.7709 17.42C18.7709 16.26 19.0043 15.2467 19.4709 14.38C19.9509 13.5133 20.6176 12.8467 21.4709 12.38C22.3243 11.9133 23.3043 11.68 24.4109 11.68C25.4909 11.68 26.4509 11.9067 27.2909 12.36C28.1309 12.8133 28.7843 13.46 29.2509 14.3C29.7309 15.14 29.9709 16.12 29.9709 17.24ZM26.4709 16.34C26.4709 15.7533 26.2709 15.2867 25.8709 14.94C25.4709 14.5933 24.9709 14.42 24.3709 14.42C23.7976 14.42 23.3109 14.5867 22.9109 14.92C22.5243 15.2533 22.2843 15.7267 22.1909 16.34H26.4709Z" fill="white"/>
</svg>
