<svg width="510" height="480" viewBox="0 0 510 480" fill="none" xmlns="http://www.w3.org/2000/svg">
<path fill-rule="evenodd" clip-rule="evenodd" d="M296.983 21.3481C342.399 16.4945 388.831 -12.4103 430.364 6.15075C472.228 24.86 494.877 71.7155 506.755 115.095C517.701 155.076 497.817 194.868 493.3 236.013C488.567 279.123 499.536 324.002 479.569 362.742C456.762 406.994 421.881 448.123 374.62 466.277C325.837 485.015 267.3 485.403 220.565 462.229C175.952 440.107 168.542 381.438 133.418 346.673C94.6786 308.329 22.9365 300.419 5.4949 249.354C-11.8373 198.61 14.3942 139.777 48.4219 97.8249C79.7727 59.1733 132.958 47.6133 181.158 32.7832C218.93 21.1617 257.611 25.5558 296.983 21.3481Z" fill="#262626"/>
<mask id="mask0" mask-type="alpha" maskUnits="userSpaceOnUse" x="0" y="0" width="510" height="480">
<path fill-rule="evenodd" clip-rule="evenodd" d="M296.983 21.3481C342.399 16.4945 388.831 -12.4103 430.364 6.15075C472.228 24.86 494.877 71.7155 506.755 115.095C517.701 155.076 497.817 194.868 493.3 236.013C488.567 279.123 499.536 324.002 479.569 362.742C456.762 406.994 421.881 448.123 374.62 466.277C325.837 485.015 267.3 485.403 220.565 462.229C175.952 440.107 168.542 381.438 133.418 346.673C94.6786 308.329 22.9365 300.419 5.4949 249.354C-11.8373 198.61 14.3942 139.777 48.4219 97.8249C79.7727 59.1733 132.958 47.6133 181.158 32.7832C218.93 21.1617 257.611 25.5558 296.983 21.3481Z" fill="black"/>
</mask>
<g mask="url(#mask0)">
<rect x="140" y="37" width="350" height="522.816"/>
</g>
</svg>
