<svg width="831" height="532" viewBox="0 0 831 532" fill="none" xmlns="http://www.w3.org/2000/svg">
<path fill-rule="evenodd" clip-rule="evenodd" d="M81.4577 254.948C72.3257 196.335 -37.0007 138.547 13.0641 87.3265C61.8108 37.455 195.741 55.6144 291.169 40.3979C380.626 26.1335 462.156 -6.24451 554.083 1.05829C656.384 9.18524 781.315 27.466 821.514 82.5292C862.609 138.819 757.999 194.79 739.437 254.948C725.634 299.683 772.757 350.693 727.338 387.756C681.849 424.875 584.128 417.23 514.572 438.441C422.685 466.461 359.318 539.644 256.456 531.349C156.211 523.265 96.9144 456.968 62.0828 401.953C32.1359 354.653 89.2747 305.121 81.4577 254.948Z" fill="#FFF7E0"/>
<path d="M83.8486 174L88.9023 150.489C84.4492 152.95 79.3809 154.181 73.6973 154.181C68.6289 154.181 64.7178 152.862 61.9639 150.226C59.21 147.56 57.833 143.78 57.833 138.888C57.833 137.452 58.0234 135.65 58.4043 133.482L62.9746 109.752H80.2451L75.9385 131.241C75.6455 132.589 75.499 133.731 75.499 134.669C75.499 136.397 76.041 137.716 77.125 138.624C78.2383 139.532 79.6738 139.986 81.4316 139.986C83.0137 139.986 84.6982 139.708 86.4854 139.151C88.3018 138.595 90.001 137.848 91.583 136.91L97.252 109.752H114.479L101.031 174H83.8486ZM141.593 174H124.41L134.825 123.946H120.895L123.927 109.752H169.103L165.982 123.946H152.008L141.593 174ZM203.116 108.741C210.733 108.741 216.651 110.924 220.87 115.289C225.118 119.625 227.242 125.689 227.242 133.482C227.242 141.275 225.777 148.409 222.848 154.884C219.947 161.329 215.934 166.28 210.807 169.737C205.68 173.165 199.732 174.879 192.965 174.879C185.084 174.879 178.99 172.696 174.684 168.331C170.406 163.966 168.268 157.901 168.268 150.138C168.268 142.374 169.776 135.24 172.794 128.736C175.812 122.232 179.913 117.281 185.099 113.883C190.313 110.455 196.319 108.741 203.116 108.741ZM209.884 133.658C209.884 130.318 209.181 127.711 207.774 125.836C206.368 123.932 204.332 122.979 201.666 122.979C198.766 122.979 196.1 124.21 193.668 126.671C191.236 129.132 189.288 132.516 187.823 136.822C186.388 141.129 185.67 145.538 185.67 150.05C185.67 157.14 188.6 160.685 194.459 160.685C197.242 160.685 199.82 159.469 202.193 157.037C204.596 154.605 206.471 151.324 207.818 147.193C209.195 143.062 209.884 138.551 209.884 133.658ZM283.492 150.621L267.848 174H247.325L269.474 145.216C267.335 143.429 265.782 141.437 264.815 139.239C263.878 137.013 263.409 134.405 263.409 131.417C263.409 124.796 265.665 119.537 270.177 115.641C274.718 111.715 280.987 109.752 288.985 109.752H312.364L298.697 174H281.515L286.568 150.621H283.492ZM292.413 122.892H288.37C286.114 122.892 284.254 123.668 282.789 125.221C281.324 126.744 280.592 128.722 280.592 131.153C280.592 133.409 281.148 135.05 282.262 136.075C283.404 137.071 284.84 137.569 286.568 137.569H289.249L292.413 122.892ZM378.722 194.083L383.028 174H346.949L342.643 194.083H325.899L333.019 159.762H340.841C345.265 152.936 349.454 145.069 353.409 136.163C357.394 127.257 360.616 118.453 363.077 109.752H402.584L391.949 159.762H402.76L395.465 194.083H378.722ZM382.501 123.946H375.03C371.075 136.661 365.978 148.6 359.737 159.762H374.767L382.501 123.946ZM446.397 174H408.253L421.832 109.752H459.977L457.12 123.683H436.158L434.093 133.79H453.604L450.44 147.721H430.929L428.424 159.85H449.386L446.397 174ZM491.09 174L501.637 123.419H492.892C488.146 140.88 484.996 151.441 483.443 155.104C481.334 160.318 479.254 164.303 477.203 167.057C475.182 169.811 472.853 171.803 470.216 173.033C467.608 174.264 464.269 174.879 460.196 174.879C457.823 174.879 455.553 174.498 453.385 173.736V160.333C454.703 160.772 455.641 161.036 456.197 161.124C456.754 161.183 457.311 161.212 457.867 161.212C459.42 161.212 460.65 160.89 461.559 160.245C462.467 159.601 463.39 158.561 464.327 157.125C465.265 155.66 466.231 153.668 467.228 151.148C470.216 143.619 474.303 129.82 479.488 109.752H521.676L508.272 174H491.09ZM558.941 161.959H539.254L533.761 174H515.919L548.614 109.752H570.719L576.124 174H559.381L558.941 161.959ZM545.538 148.248H558.414L557.667 129.615L557.579 125.836C557.579 123.639 557.638 121.72 557.755 120.079C557.052 122.599 556.158 125.03 555.074 127.374L545.538 148.248ZM652.062 108.741C659.737 108.741 665.67 110.924 669.859 115.289C674.078 119.654 676.188 125.719 676.188 133.482C676.188 141.275 674.723 148.409 671.793 154.884C668.893 161.329 664.864 166.28 659.708 169.737C654.581 173.165 648.648 174.879 641.91 174.879C634.059 174.879 627.979 172.711 623.673 168.375C619.396 164.039 617.257 157.96 617.257 150.138V147.809H606.271L600.689 174H583.507L597.086 109.752H614.269L609.347 133.57H619.85C622.486 125.66 626.617 119.552 632.242 115.245C637.867 110.909 644.474 108.741 652.062 108.741ZM658.829 133.658C658.829 130.318 658.126 127.711 656.72 125.836C655.343 123.932 653.321 122.979 650.655 122.979C647.726 122.979 645.03 124.21 642.569 126.671C640.138 129.132 638.204 132.53 636.769 136.866C635.333 141.202 634.615 145.597 634.615 150.05C634.615 157.14 637.56 160.685 643.448 160.685C646.202 160.685 648.766 159.469 651.139 157.037C653.541 154.605 655.416 151.324 656.764 147.193C658.141 143.033 658.829 138.521 658.829 133.658Z" fill="white"/>
</svg>
