<svg width="452" height="418" viewBox="0 0 452 418" fill="none" xmlns="http://www.w3.org/2000/svg">
<path fill-rule="evenodd" clip-rule="evenodd" d="M249.883 400.312C205.045 423.525 144.388 422.308 101.482 403.983C59.9239 386.233 45.7391 344.016 31.1146 306.876C19.8486 278.266 31.9851 246.508 27.5053 216.114C22.6241 182.996 -8.16436 154.223 3.69474 120.84C16.0809 85.973 52.386 57.3489 90.7523 38.0752C128.746 18.9888 172.412 19.5742 214.969 14.7043C263.446 9.15692 315.829 -9.33613 357.388 7.56322C399.74 24.7851 417.561 65.725 432.401 103.12C446.803 139.411 462.461 180.847 440.845 217.871C419.641 254.189 356.325 257.903 324.004 288.782C289.429 321.815 294.456 377.236 249.883 400.312Z" fill="#F9F9F9"/>
</svg>
