<svg width="30" height="33" viewBox="0 0 30 33" fill="none" xmlns="http://www.w3.org/2000/svg">
<path d="M19.5737 19.9387C19.5737 22.6495 16.9138 22.5869 16.6326 22.5869H11.2158V17.3652H16.6326C19.4826 17.3652 19.5737 19.4043 19.5737 19.9387ZM16.2154 15.2642C16.2603 15.2642 18.7895 15.3281 18.7895 12.9432C18.7895 11.9512 18.5545 10.6504 16.2154 10.6504H11.2158V15.2642H16.2154ZM30 6.81835V25.9088C29.9961 27.1736 29.4681 28.3854 28.5312 29.2797C27.5943 30.174 26.3247 30.6781 24.9998 30.6818H5.00022C3.67528 30.6781 2.40571 30.174 1.46882 29.2797C0.531942 28.3854 0.00388653 27.1736 0 25.9088L0 6.81835C0.00388653 5.55363 0.531942 4.34177 1.46882 3.44747C2.40571 2.55317 3.67528 2.04912 5.00022 2.04541H24.9998C26.3247 2.04912 27.5943 2.55317 28.5312 3.44747C29.4681 4.34177 29.9961 5.55363 30 6.81835ZM22.6373 20.3177C22.6373 18.9389 22.192 16.5918 19.3527 16.0127V15.966C20.8868 15.3409 21.8531 14.1603 21.8531 12.4095C21.8531 11.962 21.9871 8.26871 16.6567 8.26871H8.15223V24.973C16.7391 24.973 17.5185 25.0804 19.1076 24.6081C20.0592 24.3255 22.6373 23.4588 22.6373 20.3177Z" fill="white"/>
</svg>
