<svg width="25" height="26" viewBox="0 0 25 26" fill="none" xmlns="http://www.w3.org/2000/svg">
<g clip-path="url(#clip0)">
<path d="M1.5625 22.6613C1.5625 23.9552 2.6123 25.005 3.90625 25.005H21.0938C22.3877 25.005 23.4375 23.9552 23.4375 22.6613V9.38H1.5625V22.6613ZM17.1875 13.0909C17.1875 12.7687 17.4512 12.505 17.7734 12.505H19.7266C20.0488 12.505 20.3125 12.7687 20.3125 13.0909V15.0441C20.3125 15.3663 20.0488 15.63 19.7266 15.63H17.7734C17.4512 15.63 17.1875 15.3663 17.1875 15.0441V13.0909ZM17.1875 19.3409C17.1875 19.0187 17.4512 18.755 17.7734 18.755H19.7266C20.0488 18.755 20.3125 19.0187 20.3125 19.3409V21.2941C20.3125 21.6163 20.0488 21.88 19.7266 21.88H17.7734C17.4512 21.88 17.1875 21.6163 17.1875 21.2941V19.3409ZM10.9375 13.0909C10.9375 12.7687 11.2012 12.505 11.5234 12.505H13.4766C13.7988 12.505 14.0625 12.7687 14.0625 13.0909V15.0441C14.0625 15.3663 13.7988 15.63 13.4766 15.63H11.5234C11.2012 15.63 10.9375 15.3663 10.9375 15.0441V13.0909ZM10.9375 19.3409C10.9375 19.0187 11.2012 18.755 11.5234 18.755H13.4766C13.7988 18.755 14.0625 19.0187 14.0625 19.3409V21.2941C14.0625 21.6163 13.7988 21.88 13.4766 21.88H11.5234C11.2012 21.88 10.9375 21.6163 10.9375 21.2941V19.3409ZM4.6875 13.0909C4.6875 12.7687 4.95117 12.505 5.27344 12.505H7.22656C7.54883 12.505 7.8125 12.7687 7.8125 13.0909V15.0441C7.8125 15.3663 7.54883 15.63 7.22656 15.63H5.27344C4.95117 15.63 4.6875 15.3663 4.6875 15.0441V13.0909ZM4.6875 19.3409C4.6875 19.0187 4.95117 18.755 5.27344 18.755H7.22656C7.54883 18.755 7.8125 19.0187 7.8125 19.3409V21.2941C7.8125 21.6163 7.54883 21.88 7.22656 21.88H5.27344C4.95117 21.88 4.6875 21.6163 4.6875 21.2941V19.3409ZM21.0938 3.13H18.75V0.786255C18.75 0.356567 18.3984 0.00500488 17.9688 0.00500488H16.4062C15.9766 0.00500488 15.625 0.356567 15.625 0.786255V3.13H9.375V0.786255C9.375 0.356567 9.02344 0.00500488 8.59375 0.00500488H7.03125C6.60156 0.00500488 6.25 0.356567 6.25 0.786255V3.13H3.90625C2.6123 3.13 1.5625 4.17981 1.5625 5.47375V7.8175H23.4375V5.47375C23.4375 4.17981 22.3877 3.13 21.0938 3.13Z" fill="#FEC62E"/>
</g>
<defs>
<clipPath id="clip0">
<rect width="25" height="25" fill="white" transform="translate(0 0.00500488)"/>
</clipPath>
</defs>
</svg>
