<svg width="30" height="33" viewBox="0 0 30 33" fill="none" xmlns="http://www.w3.org/2000/svg">
<g clip-path="url(#clip0)">
<path d="M8.3042 22.816C7.14346 22.8155 6.02039 23.0973 5.07872 23.6114C4.13728 24.1254 3.4371 24.8378 3.03375 25.6332C2.63301 26.4235 2.53319 27.2769 2.73203 28.0973C2.93188 28.9219 3.43413 29.7124 4.21673 30.3535C5.0009 30.9959 6.02174 31.4495 7.1572 31.6349C8.29225 31.8202 9.46752 31.7249 10.5284 31.366C11.5897 31.0069 12.4669 30.4081 13.0687 29.6723C13.6676 28.9398 13.9681 28.1051 13.9687 27.2741V10.9112V9.91122H14.9687H21.6406L8.3042 22.816ZM8.3042 22.816C8.30436 22.816 8.30452 22.816 8.30468 22.816L8.30515 20.816C8.305 20.816 8.30484 20.816 8.30468 20.816M8.3042 22.816L8.30468 20.816M8.30468 20.816C6.74374 20.816 5.27752 20.307 4.22295 19.4442L3.58971 20.2181L4.22295 19.4442C3.17397 18.5859 2.63671 17.47 2.63671 16.3604C2.63671 15.2509 3.17397 14.135 4.22295 13.2767C5.27752 12.4139 6.74374 11.9048 8.30468 11.9048V10.9048M8.30468 20.816V10.9048M8.30468 10.9048V9.90483C6.74478 9.90483 5.27955 9.39613 4.22571 8.5339C3.17746 7.67624 2.64062 6.56109 2.64062 5.45241C2.64062 4.34374 3.17746 3.22859 4.22571 2.37093C5.27955 1.5087 6.74478 1 8.30468 1H21.6406C23.2015 1 24.6678 1.50904 25.7223 2.37187C26.7713 3.23013 27.3086 4.34609 27.3086 5.45561C27.3086 6.56514 26.7713 7.68109 25.7223 8.53935C24.6678 9.40217 23.2016 9.9112 21.6407 9.91122L8.30468 10.9048ZM18.4179 12.7076C19.3585 12.1933 20.4806 11.9112 21.6405 11.9112L27.3047 16.3638C27.3046 17.194 27.0049 18.0282 26.407 18.7603C25.8063 19.4959 24.9301 20.0946 23.8699 20.4539C22.81 20.8131 21.6356 20.9089 20.5011 20.7243C19.3663 20.5396 18.3458 20.0867 17.5616 19.4451C16.7791 18.8048 16.2766 18.015 16.0763 17.1911C15.877 16.3714 15.9761 15.5186 16.376 14.7288C16.7784 13.9338 17.4776 13.2217 18.4179 12.7076ZM21.6406 11.9112C23.2004 11.9114 24.6655 12.4201 25.7193 13.2823C26.7675 14.14 27.3045 15.255 27.3047 16.3636L21.6406 11.9112Z" stroke="white" stroke-width="2"/>
</g>
<defs>
<clipPath id="clip0">
<rect width="30" height="32.7273" fill="white"/>
</clipPath>
</defs>
</svg>
