<svg width="25" height="26" viewBox="0 0 25 26" fill="none" xmlns="http://www.w3.org/2000/svg">
<g clip-path="url(#clip0)">
<path d="M24.7965 9.81143L23.8143 8.82922C23.5431 8.55795 23.1034 8.55795 22.8321 8.82922L22.3412 9.32011L21.0869 8.06577C21.3313 7.14085 21.1025 6.11698 20.3773 5.39172L18.4133 3.42774C15.7015 0.715939 11.3044 0.715939 8.59212 3.42774L12.5205 5.39172V6.20552C12.5205 6.94207 12.813 7.64866 13.3343 8.1695L15.4671 10.3023C16.1924 11.0276 17.2162 11.2563 18.1412 11.0119L19.3955 12.2663L18.9046 12.7572C18.6333 13.0284 18.6333 13.4681 18.9046 13.7394L19.8868 14.7216C20.1581 14.9928 20.5978 14.9928 20.869 14.7216L24.7974 10.7932C25.0678 10.5224 25.0678 10.0827 24.7965 9.81143ZM12.3521 9.1517C12.1915 8.99111 12.0552 8.81359 11.9246 8.63304L0.852531 18.9703C-0.257278 20.0067 -0.287226 21.7563 0.786125 22.8301C1.85948 23.9039 3.60948 23.8739 4.64593 22.7637L14.9814 11.6929C14.8096 11.5666 14.6386 11.4382 14.4849 11.2845L12.3521 9.1517Z" fill="#FEC62E"/>
</g>
<defs>
<clipPath id="clip0">
<rect width="25" height="25" fill="white" transform="translate(0 0.00500488)"/>
</clipPath>
</defs>
</svg>
