<svg width="85" height="81" viewBox="0 0 85 81" fill="none" xmlns="http://www.w3.org/2000/svg">
<g clip-path="url(#clip0)">
<path d="M39.7895 59.9611L35.0239 58.5783C34.5239 58.4376 34.2426 57.9142 34.3833 57.4142L45.0473 20.6798C45.188 20.1798 45.7114 19.8986 46.2114 20.0392L50.977 21.422C51.477 21.5626 51.7583 22.0861 51.6176 22.5861L40.9536 59.3205C40.8051 59.8205 40.2895 60.1095 39.7895 59.9611ZM30.8833 51.1955L34.2817 47.5705C34.6411 47.1876 34.6176 46.5783 34.2192 46.2267L27.1411 40.0001L34.2192 33.7736C34.6176 33.422 34.6489 32.8126 34.2817 32.4298L30.8833 28.8048C30.5317 28.4298 29.938 28.4064 29.5551 28.7658L18.2973 39.3126C17.8989 39.6798 17.8989 40.3126 18.2973 40.6798L29.5551 51.2345C29.938 51.5939 30.5317 51.5783 30.8833 51.1955ZM56.4458 51.2423L67.7036 40.6876C68.102 40.3205 68.102 39.6876 67.7036 39.3205L56.4458 28.758C56.0708 28.4064 55.477 28.422 55.1176 28.797L51.7192 32.422C51.3598 32.8048 51.3833 33.4142 51.7817 33.7658L58.8598 40.0001L51.7817 46.2267C51.3833 46.5783 51.352 47.1876 51.7192 47.5705L55.1176 51.1955C55.4692 51.5783 56.063 51.5939 56.4458 51.2423Z" fill="#FEC62E"/>
</g>
<path d="M40.1484 2.25325C41.6183 1.4699 43.3817 1.4699 44.8516 2.25325L76.6577 19.2039C78.2877 20.0727 79.3061 21.7693 79.3061 23.6164V56.8451C79.3061 58.6922 78.2877 60.3889 76.6577 61.2576L44.8516 78.2083C43.3817 78.9916 41.6183 78.9916 40.1484 78.2083L8.34234 61.2576C6.71227 60.3889 5.69392 58.6922 5.69392 56.8451V23.6164C5.69392 21.7693 6.71226 20.0727 8.34233 19.2039L40.1484 2.25325Z" stroke="black" stroke-width="3"/>
<defs>
<clipPath id="clip0">
<rect width="50" height="40" fill="white" transform="translate(18 20)"/>
</clipPath>
</defs>
</svg>
