<svg width="108" height="80" viewBox="0 0 108 80" fill="none" xmlns="http://www.w3.org/2000/svg">
<rect y="58.2856" width="108" height="11.4286" rx="2" fill="black"/>
<path d="M45.9801 67.4283H65.2276C65.5585 73.2416 65.8579 76.3346 68.4355 78.8569H42.7722L45.9801 67.4283Z" fill="black"/>
<path d="M61.9393 67.4283H42.6918C42.3609 73.2416 42.0616 76.3346 39.4839 78.8569H65.1473L61.9393 67.4283Z" fill="black"/>
<mask id="path-4-inside-1" fill="white">
<rect width="108" height="69.7143" rx="2"/>
</mask>
<rect width="108" height="69.7143" rx="2" stroke="black" stroke-width="6" mask="url(#path-4-inside-1)"/>
<line x1="37" y1="79" x2="69.8387" y2="79" stroke="black" stroke-width="2" stroke-linecap="round"/>
<g clip-path="url(#clip0)">
<path d="M55.7171 63.8996C55.7135 63.2889 56.0147 62.828 56.6244 62.4885C56.2832 62.0409 55.7679 61.7947 55.0875 61.7464C54.4433 61.6998 53.7393 62.0909 53.4816 62.0909C53.2094 62.0909 52.5852 61.763 52.0953 61.763C51.0828 61.778 50.0068 62.5035 50.0068 63.9795C50.0068 64.4155 50.0939 64.8658 50.2681 65.3306C50.5004 65.9413 51.3387 67.4389 52.2133 67.414C52.6705 67.404 52.9935 67.1161 53.5887 67.1161C54.1657 67.1161 54.4651 67.414 54.975 67.414C55.8568 67.4023 56.6153 66.0412 56.8367 65.4288C55.6536 64.918 55.7171 63.9312 55.7171 63.8996V63.8996ZM54.6901 61.1673C55.1854 60.6282 55.1401 60.1373 55.1256 59.9609C54.6883 59.9842 54.182 60.2338 53.8935 60.5417C53.576 60.8711 53.3891 61.2788 53.429 61.7381C53.9026 61.7714 54.3344 61.5484 54.6901 61.1673V61.1673Z" fill="white"/>
</g>
<g clip-path="url(#clip1)">
<path d="M45.6907 30.7611L53.3219 23.2521L50.8201 20.7901L47.3227 24.2321C47.2809 24.2732 47.2314 24.3058 47.1769 24.3281C47.1223 24.3503 47.0639 24.3618 47.0048 24.3618C46.9458 24.3618 46.8873 24.3503 46.8328 24.3281C46.7783 24.3058 46.7287 24.2732 46.687 24.2321L46.0514 23.6065C45.8756 23.4335 45.8756 23.1534 46.0514 22.9809L49.5488 19.539L47.6413 17.6612C46.9388 16.9698 45.8002 16.9698 45.0976 17.6612L40.0107 22.6673C39.3087 23.3587 39.3082 24.4793 40.0107 25.1707L45.6907 30.7611V30.7611ZM67.7184 24.2432C68.7822 23.1963 68.7816 21.4994 67.7184 20.4525L65.1526 17.9274C64.0888 16.8805 62.3639 16.8805 61.2995 17.9274L58.69 20.4949L65.1089 26.8119L67.7184 24.2432V24.2432ZM57.4068 21.7583L40.5658 38.3297L39.5021 44.3252C39.3586 45.1338 40.0742 45.8381 40.8964 45.6958L46.9892 44.6444L63.8257 28.0747L57.4068 21.7583ZM67.9894 37.6863L66.0819 35.8091L62.5844 39.251C62.4087 39.424 62.124 39.424 61.9488 39.251L61.3132 38.6255C61.1379 38.4525 61.1379 38.1723 61.3132 37.9999L64.8106 34.5579L62.3077 32.0948L54.6766 39.6037L60.3588 45.1952C61.0614 45.8866 62.2 45.8866 62.9026 45.1952L67.9894 40.1896C68.692 39.4982 68.692 38.3777 67.9894 37.6863Z" fill="#FEC62E"/>
</g>
<defs>
<clipPath id="clip0">
<rect width="6.96775" height="8.51965" fill="white" transform="translate(49.9355 59.4285)"/>
</clipPath>
<clipPath id="clip1">
<rect width="29.0323" height="28.5714" fill="white" transform="translate(39.4839 17.1427)"/>
</clipPath>
</defs>
</svg>
