<svg width="30" height="33" viewBox="0 0 30 33" fill="none" xmlns="http://www.w3.org/2000/svg">
<path d="M0 2.04541V30.6818H30V2.04541H0ZM16.3259 24.3792C16.3259 27.1661 14.6116 28.4382 12.1138 28.4382C9.85714 28.4382 8.55134 27.3259 7.8817 25.9772L10.1786 24.6541C10.6205 25.4019 11.0223 26.0348 11.9933 26.0348C12.9174 26.0348 13.5067 25.6896 13.5067 24.3409V15.1938H16.3259V24.3792ZM22.9955 28.4382C20.3772 28.4382 18.683 27.2492 17.8594 25.6896L20.1562 24.424C20.7589 25.3636 21.5491 26.0603 22.9353 26.0603C24.1004 26.0603 24.8504 25.5042 24.8504 24.7308C24.8504 23.8103 24.0871 23.4843 22.7946 22.941L22.0915 22.6534C20.0558 21.8288 18.7098 20.7869 18.7098 18.5944C18.7098 16.5745 20.3237 15.0404 22.8348 15.0404C24.6295 15.0404 25.9152 15.6349 26.8393 17.1946L24.6429 18.5369C24.1607 17.7123 23.6384 17.3863 22.8281 17.3863C22.0045 17.3863 21.4821 17.8849 21.4821 18.5369C21.4821 19.3423 22.0045 19.6683 23.2165 20.1733L23.9196 20.4609C26.317 21.4389 27.6629 22.4424 27.6629 24.6924C27.6629 27.1086 25.6674 28.4382 22.9955 28.4382Z" fill="white"/>
</svg>
