<svg width="25" height="26" viewBox="0 0 25 26" fill="none" xmlns="http://www.w3.org/2000/svg">
<g clip-path="url(#clip0)">
<path d="M15.9474 9.05682C18.8647 11.9772 18.8247 16.6593 15.965 19.5348C15.9596 19.5407 15.9532 19.5471 15.9474 19.5529L12.6661 22.8342C9.77209 25.7282 5.06365 25.7278 2.17004 22.8342C-0.723999 19.9406 -0.723999 15.2316 2.17004 12.3381L3.98186 10.5263C4.46233 10.0458 5.28977 10.3651 5.31458 11.0441C5.34622 11.9095 5.50139 12.7788 5.78772 13.6184C5.88469 13.9027 5.81541 14.2171 5.603 14.4295L4.96399 15.0685C3.59553 16.437 3.55261 18.6652 4.90759 20.0471C6.27595 21.4425 8.52507 21.4508 9.90393 20.072L13.1852 16.7912C14.5617 15.4147 14.5559 13.1898 13.1852 11.819C13.0045 11.6387 12.8224 11.4985 12.6802 11.4006C12.5797 11.3315 12.4966 11.2399 12.4377 11.133C12.3788 11.0262 12.3457 10.907 12.341 10.7851C12.3217 10.2691 12.5045 9.73744 12.9122 9.32972L13.9403 8.30165C14.2098 8.03207 14.6327 7.99896 14.9453 8.21712C15.3033 8.4671 15.6386 8.74808 15.9474 9.05682ZM22.829 2.17489C19.9354 -0.718765 15.2269 -0.719156 12.3329 2.17489L9.05164 5.45614C9.04578 5.462 9.03943 5.46834 9.03406 5.4742C6.17439 8.34979 6.1343 13.0319 9.05164 15.9522C9.36037 16.261 9.69566 16.5419 10.0536 16.7919C10.3662 17.01 10.7892 16.9769 11.0587 16.7074L12.0867 15.6793C12.4945 15.2716 12.6773 14.7399 12.6579 14.2239C12.6533 14.102 12.6202 13.9828 12.5613 13.876C12.5024 13.7691 12.4193 13.6775 12.3187 13.6084C12.1765 13.5105 11.9945 13.3703 11.8138 13.19C10.443 11.8192 10.4373 9.59432 11.8138 8.21781L15.095 4.93705C16.4739 3.55819 18.723 3.56649 20.0914 4.96195C21.4464 6.34378 21.4035 8.57201 20.035 9.94046L19.396 10.5795C19.1836 10.7919 19.1143 11.1063 19.2113 11.3906C19.4976 12.2302 19.6528 13.0995 19.6844 13.9649C19.7093 14.6439 20.5366 14.9632 21.0171 14.4827L22.8289 12.6709C25.723 9.77742 25.723 5.06844 22.829 2.17489Z" fill="#FEC62E"/>
</g>
<defs>
<clipPath id="clip0">
<rect width="25" height="25" fill="white" transform="translate(0 0.00500488)"/>
</clipPath>
</defs>
</svg>
