<svg width="169" height="176" viewBox="0 0 169 176" fill="none" xmlns="http://www.w3.org/2000/svg">
<g clip-path="url(#clip0)">
<path d="M100.521 83.4789L102.021 92.4788L96.5213 92.4788L100.521 83.4789Z" fill="black"/>
<path d="M106.021 130.479H77.0212L80.0212 124.479H106.021V130.479Z" fill="black"/>
<path d="M72.5836 40.163L82.5212 40.1611L24.995 146.482L15 146.484L72.5836 40.163Z" fill="black"/>
<path d="M24.0212 140.479H53.0212L50.0212 146.479H24.0212V140.479Z" fill="black"/>
<path d="M94.0212 124.479H106.91L110.021 146.479H97.1324L94.0212 124.479Z" fill="black"/>
<path d="M103.021 140.479H130.021L131.021 146.479H103.021V140.479Z" fill="black"/>
<path d="M124.942 116.95H89.5422L81.4422 133H46.4922L104.092 26.8H142.492L162.442 133H127.342L124.942 116.95ZM121.342 91.9L116.992 62.35L102.142 91.9H121.342Z" fill="#FEC62E"/>
</g>
<defs>
<clipPath id="clip0">
<rect width="169" height="176" fill="white"/>
</clipPath>
</defs>
</svg>
