<svg width="88" height="80" viewBox="0 0 88 80" fill="none" xmlns="http://www.w3.org/2000/svg">
<g clip-path="url(#clip0)">
<path d="M7.59277 46.9251C10.4273 60.238 22.1012 70.9659 36.5805 73.591C63.9026 78.5464 84.2699 55.9521 81.3916 38.9294C80.4565 33.4114 73.4142 30.706 67.9936 33.2373C61.3603 36.3311 53.6166 31.9114 53.6166 25.0809L53.6166 14.4065C53.6166 9.61176 49.2918 5.72774 44.0758 5.71434C21.0493 5.78131 2.93195 24.9871 7.59277 46.9251ZM53.6166 61.43C53.6166 63.8005 51.5273 65.7158 48.9412 65.7158C46.3551 65.7158 44.2657 63.8005 44.2657 61.43C44.2657 59.0594 46.3551 57.1441 48.9412 57.1441C51.5273 57.1441 53.6166 59.0594 53.6166 61.43ZM34.9149 57.1441C34.9149 59.5147 32.8255 61.43 30.2394 61.43C27.6533 61.43 25.564 59.5147 25.564 57.1441C25.564 54.7735 27.6533 52.8583 30.2394 52.8583C32.8255 52.8583 34.9149 54.7735 34.9149 57.1441ZM25.564 40.0009C25.564 42.3715 23.4747 44.2867 20.8886 44.2867C18.3024 44.2867 16.2131 42.3715 16.2131 40.0009C16.2131 37.6303 18.3024 35.7151 20.8886 35.7151C23.4747 35.7151 25.564 37.6303 25.564 40.0009ZM34.9149 22.8576C34.9149 25.2282 32.8255 27.1434 30.2394 27.1434C27.6533 27.1434 25.564 25.2282 25.564 22.8576C25.564 20.487 27.6533 18.5718 30.2394 18.5718C32.8255 18.5718 34.9149 20.487 34.9149 22.8576Z" stroke="black" stroke-width="3"/>
</g>
<g clip-path="url(#clip1)">
<path d="M55.0488 35.3642C51.9144 35.5841 49.0699 36.8864 47.4558 41.5261C47.2722 42.0554 46.8308 42.3767 46.316 42.3767C45.448 42.3767 42.7644 40.0185 41.9996 39.4492C42.0004 46.4676 44.9636 52.6364 52.0004 52.6364C57.9269 52.6364 62.0004 48.906 62.0004 42.3929C62.0004 42.1278 61.9496 41.8747 61.9246 41.6148L55.0488 35.3642ZM77.773 9C76.5886 9 75.4785 9.57188 74.6316 10.402C58.6621 25.9645 57.0004 26.3301 57.0004 30.9111C57.0004 32.0787 57.2543 33.1918 57.6824 34.2094L62.6683 38.7418C63.2316 38.8952 63.8121 39 64.4175 39C69.2699 39 72.0824 35.1247 80.9144 17.1426C81.491 15.9196 82.0004 14.5986 82.0004 13.223C82.0004 10.7591 79.9691 9 77.773 9Z" fill="#FEC62E"/>
</g>
<defs>
<clipPath id="clip0">
<rect width="80" height="87.2727" fill="white" transform="translate(0 80) rotate(-90)"/>
</clipPath>
<clipPath id="clip1">
<rect width="40" height="43.6364" fill="white" transform="translate(42 9)"/>
</clipPath>
</defs>
</svg>
