<svg width="34" height="33" viewBox="0 0 34 33" fill="none" xmlns="http://www.w3.org/2000/svg">
<rect x="1" y="1" width="32" height="30.9933" stroke="white" stroke-width="2"/>
<path d="M18.4224 13.48C18.4224 14.2933 18.2358 15.04 17.8624 15.72C17.4891 16.3867 16.9158 16.9267 16.1424 17.34C15.3691 17.7533 14.4091 17.96 13.2624 17.96H11.1424V23H7.72242V8.96H13.2624C14.3824 8.96 15.3291 9.15333 16.1024 9.54C16.8758 9.92667 17.4558 10.46 17.8424 11.14C18.2291 11.82 18.4224 12.6 18.4224 13.48ZM13.0024 15.24C13.6558 15.24 14.1424 15.0867 14.4624 14.78C14.7824 14.4733 14.9424 14.04 14.9424 13.48C14.9424 12.92 14.7824 12.4867 14.4624 12.18C14.1424 11.8733 13.6558 11.72 13.0024 11.72H11.1424V15.24H13.0024ZM23.6229 13.7C24.0229 13.0867 24.5229 12.6067 25.1229 12.26C25.7229 11.9 26.3896 11.72 27.1229 11.72V15.34H26.1829C25.3296 15.34 24.6896 15.5267 24.2629 15.9C23.8362 16.26 23.6229 16.9 23.6229 17.82V23H20.2029V11.84H23.6229V13.7Z" fill="white"/>
</svg>
