<svg width="34" height="33" viewBox="0 0 34 33" fill="none" xmlns="http://www.w3.org/2000/svg">
<rect x="1" y="1" width="32" height="30.9933" stroke="white" stroke-width="2"/>
<path d="M17.1236 13.48C17.1236 14.2933 16.9369 15.04 16.5636 15.72C16.1903 16.3867 15.6169 16.9267 14.8436 17.34C14.0703 17.7533 13.1103 17.96 11.9636 17.96H9.84359V23H6.42359V8.96H11.9636C13.0836 8.96 14.0303 9.15333 14.8036 9.54C15.5769 9.92667 16.1569 10.46 16.5436 11.14C16.9303 11.82 17.1236 12.6 17.1236 13.48ZM11.7036 15.24C12.3569 15.24 12.8436 15.0867 13.1636 14.78C13.4836 14.4733 13.6436 14.04 13.6436 13.48C13.6436 12.92 13.4836 12.4867 13.1636 12.18C12.8436 11.8733 12.3569 11.72 11.7036 11.72H9.84359V15.24H11.7036ZM23.4441 23.16C22.4707 23.16 21.6041 22.9933 20.8441 22.66C20.0841 22.3267 19.4841 21.8733 19.0441 21.3C18.6041 20.7133 18.3574 20.06 18.3041 19.34H21.6841C21.7241 19.7267 21.9041 20.04 22.2241 20.28C22.5441 20.52 22.9374 20.64 23.4041 20.64C23.8307 20.64 24.1574 20.56 24.3841 20.4C24.6241 20.2267 24.7441 20.0067 24.7441 19.74C24.7441 19.42 24.5774 19.1867 24.2441 19.04C23.9107 18.88 23.3707 18.7067 22.6241 18.52C21.8241 18.3333 21.1574 18.14 20.6241 17.94C20.0907 17.7267 19.6307 17.4 19.2441 16.96C18.8574 16.5067 18.6641 15.9 18.6641 15.14C18.6641 14.5 18.8374 13.92 19.1841 13.4C19.5441 12.8667 20.0641 12.4467 20.7441 12.14C21.4374 11.8333 22.2574 11.68 23.2041 11.68C24.6041 11.68 25.7041 12.0267 26.5041 12.72C27.3174 13.4133 27.7841 14.3333 27.9041 15.48H24.7441C24.6907 15.0933 24.5174 14.7867 24.2241 14.56C23.9441 14.3333 23.5707 14.22 23.1041 14.22C22.7041 14.22 22.3974 14.3 22.1841 14.46C21.9707 14.6067 21.8641 14.8133 21.8641 15.08C21.8641 15.4 22.0307 15.64 22.3641 15.8C22.7107 15.96 23.2441 16.12 23.9641 16.28C24.7907 16.4933 25.4641 16.7067 25.9841 16.92C26.5041 17.12 26.9574 17.4533 27.3441 17.92C27.7441 18.3733 27.9507 18.9867 27.9641 19.76C27.9641 20.4133 27.7774 21 27.4041 21.52C27.0441 22.0267 26.5174 22.4267 25.8241 22.72C25.1441 23.0133 24.3507 23.16 23.4441 23.16Z" fill="white"/>
</svg>
