<svg width="30" height="33" viewBox="0 0 30 33" fill="none" xmlns="http://www.w3.org/2000/svg">
<g clip-path="url(#clip0)">
<path d="M29.4509 12.8162C28.9353 10.8411 27.9576 9.35172 25.875 9.35172H23.1897V12.3816C23.1897 14.7338 21.1004 16.7154 18.7165 16.7154H11.5647C9.60937 16.7154 7.98883 18.3134 7.98883 20.1862V26.6933C7.98883 28.547 9.67633 29.6337 11.5647 30.1642C13.8281 30.797 16.0045 30.9121 18.7165 30.1642C20.5179 29.6656 22.2924 28.6621 22.2924 26.6933V24.0918H15.1473V23.2225H25.875C27.9576 23.2225 28.7277 21.8354 29.4509 19.758C30.2009 17.6166 30.1674 15.5584 29.4509 12.8162ZM19.1652 25.824C19.9085 25.824 20.5112 26.4057 20.5112 27.1216C20.5112 27.8439 19.9085 28.4256 19.1652 28.4256C18.4286 28.4256 17.8192 27.8375 17.8192 27.1216C17.8259 26.3993 18.4286 25.824 19.1652 25.824ZM11.2366 15.8588H18.3884C20.3772 15.8588 21.9643 14.2928 21.9643 12.3879V5.87445C21.9643 4.02076 20.3304 2.63368 18.3884 2.32047C15.9911 1.94334 13.3862 1.96252 11.2366 2.32686C8.20982 2.83823 7.66071 3.9057 7.66071 5.88084V8.4824H14.8192V9.35172H4.97544C2.89285 9.35172 1.07142 10.547 0.502222 12.8162C-0.154029 15.4178 -0.180814 17.0414 0.502222 19.758C1.01115 21.7779 2.2232 23.2225 4.3058 23.2225H6.76339V20.1031C6.76339 17.8467 8.8058 15.8588 11.2366 15.8588ZM10.7879 6.74377C10.0446 6.74377 9.44196 6.16209 9.44196 5.44618C9.44866 4.72388 10.0446 4.14221 10.7879 4.14221C11.5245 4.14221 12.1339 4.73027 12.1339 5.44618C12.1339 6.16209 11.5312 6.74377 10.7879 6.74377Z" fill="white"/>
</g>
<defs>
<clipPath id="clip0">
<rect width="30" height="32.7273" fill="white"/>
</clipPath>
</defs>
</svg>
