<svg width="40" height="37" viewBox="0 0 40 37" fill="none" xmlns="http://www.w3.org/2000/svg">
<path d="M17.8836 1.6945C19.2065 0.989484 20.7935 0.989485 22.1164 1.6945L34.4369 8.26058C35.904 9.04243 36.8205 10.5694 36.8205 12.2318V24.6913C36.8205 26.3537 35.904 27.8806 34.4369 28.6625L22.1164 35.2286C20.7935 35.9336 19.2065 35.9336 17.8836 35.2286L5.56306 28.6625C4.096 27.8806 3.17949 26.3537 3.17949 24.6913V12.2318C3.17949 10.5694 4.096 9.04243 5.56306 8.26058L17.8836 1.6945Z" stroke="white"/>
<path d="M7.49988 18.72C7.49988 17.68 7.72488 16.755 8.17488 15.945C8.62488 15.125 9.24988 14.49 10.0499 14.04C10.8599 13.58 11.7749 13.35 12.7949 13.35C14.0449 13.35 15.1149 13.68 16.0049 14.34C16.8949 15 17.4899 15.9 17.7899 17.04H14.9699C14.7599 16.6 14.4599 16.265 14.0699 16.035C13.6899 15.805 13.2549 15.69 12.7649 15.69C11.9749 15.69 11.3349 15.965 10.8449 16.515C10.3549 17.065 10.1099 17.8 10.1099 18.72C10.1099 19.64 10.3549 20.375 10.8449 20.925C11.3349 21.475 11.9749 21.75 12.7649 21.75C13.2549 21.75 13.6899 21.635 14.0699 21.405C14.4599 21.175 14.7599 20.84 14.9699 20.4H17.7899C17.4899 21.54 16.8949 22.44 16.0049 23.1C15.1149 23.75 14.0449 24.075 12.7949 24.075C11.7749 24.075 10.8599 23.85 10.0499 23.4C9.24988 22.94 8.62488 22.305 8.17488 21.495C7.72488 20.685 7.49988 19.76 7.49988 18.72ZM29.1557 17.43L28.7357 19.395H30.5357V21.705H28.2407L27.7457 24H25.3457L25.8407 21.705H23.3507L22.8557 24H20.4557L20.9507 21.705H18.7307V19.395H21.4457L21.8657 17.43H19.6907V15.12H22.3457L22.8257 12.9H25.2257L24.7457 15.12H27.2357L27.7157 12.9H30.1157L29.6357 15.12H31.4957V17.43H29.1557ZM26.7557 17.43H24.2657L23.8457 19.395H26.3357L26.7557 17.43Z" fill="white"/>
</svg>
