<svg width="30" height="31" viewBox="0 0 30 31" fill="none" xmlns="http://www.w3.org/2000/svg">
<g clip-path="url(#clip0)">
<path d="M10.5 15.005C13.8141 15.005 16.5 12.3191 16.5 9.005C16.5 5.69094 13.8141 3.005 10.5 3.005C7.18594 3.005 4.5 5.69094 4.5 9.005C4.5 12.3191 7.18594 15.005 10.5 15.005ZM14.7 16.505H13.9172C12.8766 16.9831 11.7188 17.255 10.5 17.255C9.28125 17.255 8.12813 16.9831 7.08281 16.505H6.3C2.82187 16.505 0 19.3269 0 22.805V24.755C0 25.9972 1.00781 27.005 2.25 27.005H18.75C19.9922 27.005 21 25.9972 21 24.755V22.805C21 19.3269 18.1781 16.505 14.7 16.505ZM29.8406 10.4863L28.5375 9.16907C28.3219 8.94875 27.9703 8.94875 27.75 9.16438L22.8375 14.0394L20.7047 11.8925C20.4891 11.6722 20.1375 11.6722 19.9172 11.8878L18.6 13.1956C18.3797 13.4113 18.3797 13.7628 18.5953 13.9831L22.425 17.8409C22.6406 18.0613 22.9922 18.0613 23.2125 17.8456L29.8359 11.2738C30.0516 11.0534 30.0562 10.7019 29.8406 10.4863Z" fill="#FEC62E"/>
</g>
<defs>
<clipPath id="clip0">
<rect width="30" height="30" fill="white" transform="translate(0 0.00500488)"/>
</clipPath>
</defs>
</svg>
