<svg width="419" height="404" viewBox="0 0 419 404" fill="none" xmlns="http://www.w3.org/2000/svg">
<path fill-rule="evenodd" clip-rule="evenodd" d="M417.015 95.7575C423.734 129.023 399.399 166.587 392.61 202.992C387.089 232.597 394.936 260.566 380.866 289.588C365.688 320.894 341.823 350.721 311.077 371.169C279.72 392.024 243.135 403.624 209.547 403.528C177.285 403.437 153.603 386.067 129.538 370.654C106.002 355.579 88.9674 335.73 71.2228 314.933C45.2076 284.444 -2.59719 264.558 1.18926 220.23C4.91327 176.634 45.6536 128.645 89.3531 102.684C131.383 77.714 176.226 107.136 220.775 89.7752C269.711 70.7055 304.003 -1.00534 351.7 0.448665C396.699 1.82042 408.898 55.5744 417.015 95.7575Z" fill="#FAFAFA"/>
</svg>
