<svg width="831" height="532" viewBox="0 0 831 532" fill="none" xmlns="http://www.w3.org/2000/svg">
<path fill-rule="evenodd" clip-rule="evenodd" d="M81.4577 254.948C72.3257 196.335 -37.0007 138.547 13.0641 87.3265C61.8108 37.455 195.741 55.6144 291.169 40.3979C380.626 26.1335 462.156 -6.24451 554.083 1.05829C656.384 9.18524 781.315 27.466 821.514 82.5292C862.609 138.819 757.999 194.79 739.437 254.948C725.634 299.683 772.757 350.693 727.338 387.756C681.849 424.875 584.128 417.23 514.572 438.441C422.685 466.461 359.318 539.644 256.456 531.349C156.211 523.265 96.9144 456.968 62.0828 401.953C32.1359 354.653 89.2747 305.121 81.4577 254.948Z" fill="#FFF7E0"/>
<path d="M75.2842 140.9L76.6514 137.346L79.8643 129.416L91.3145 103.029H102.799V130.1C102.799 133.654 102.503 137.255 101.91 140.9C102.138 140.262 103.653 136.32 106.456 129.074L116.812 103.029H130.04L108.336 153H92.5791V131.809C92.5791 128.277 92.7272 124.585 93.0234 120.734C92.2715 123.765 90.9271 127.741 88.9902 132.663L80.3428 153H65.5088L63.834 103.029H76.4805L76.1387 128.083C76.002 134.167 75.7171 138.439 75.2842 140.9ZM163.878 153H150.514L154.786 132.629H142.96L138.619 153H125.255L135.816 103.029H149.181L145.353 121.555H157.247L161.075 103.029H174.474L163.878 153ZM203.424 143.635H188.111L183.839 153H169.962L195.392 103.029H212.584L216.788 153H203.766L203.424 143.635ZM192.999 132.971H203.014L202.433 118.479L202.364 115.539C202.364 113.83 202.41 112.338 202.501 111.062C201.954 113.021 201.259 114.912 200.416 116.735L192.999 132.971ZM242.833 153H229.469L237.569 114.069H226.734L229.093 103.029H264.229L261.803 114.069H250.934L242.833 153ZM307.535 143.635H292.223L287.95 153H274.073L299.503 103.029H316.695L320.899 153H307.877L307.535 143.635ZM297.11 132.971H307.125L306.544 118.479L306.476 115.539C306.476 113.83 306.521 112.338 306.612 111.062C306.065 113.021 305.37 114.912 304.527 116.735L297.11 132.971ZM345.611 153V117.146H345.338C343.811 126.647 342.831 132.481 342.398 134.646L338.536 153H326.642L337.203 103.029H354.908V138.508H355.182L371.52 103.029H389.498L378.8 153H366.803L370.802 134.235C371.941 129.04 373.172 124.073 374.493 119.333L375.006 117.146H374.732L358.258 153H345.611ZM408.399 153L418.961 103.029H432.53L421.969 153H408.399ZM496.104 121.931C496.104 128.311 494.977 133.848 492.721 138.542C490.465 143.213 487.184 146.791 482.877 149.274C478.593 151.758 473.512 153 467.633 153H451.534L462.096 103.029H476.314C482.604 103.029 487.468 104.681 490.909 107.985C494.373 111.267 496.104 115.915 496.104 121.931ZM469.649 141.926C472.156 141.926 474.389 141.128 476.349 139.533C478.331 137.938 479.869 135.671 480.963 132.731C482.057 129.769 482.604 126.397 482.604 122.614C482.604 119.766 481.988 117.613 480.758 116.154C479.527 114.673 477.807 113.933 475.597 113.933H473.17L467.291 141.926H469.649ZM528.985 102.243C534.91 102.243 539.513 103.941 542.794 107.336C546.098 110.708 547.75 115.425 547.75 121.486C547.75 127.548 546.611 133.096 544.332 138.132C542.076 143.145 538.954 146.996 534.967 149.685C530.979 152.351 526.354 153.684 521.09 153.684C514.96 153.684 510.221 151.986 506.871 148.591C503.544 145.196 501.881 140.479 501.881 134.44C501.881 128.402 503.054 122.854 505.401 117.795C507.748 112.736 510.938 108.885 514.972 106.242C519.028 103.576 523.699 102.243 528.985 102.243ZM534.249 121.623C534.249 119.025 533.702 116.997 532.608 115.539C531.515 114.058 529.931 113.317 527.857 113.317C525.602 113.317 523.528 114.274 521.637 116.188C519.745 118.103 518.23 120.734 517.091 124.084C515.974 127.434 515.416 130.863 515.416 134.372C515.416 139.886 517.695 142.644 522.252 142.644C524.417 142.644 526.422 141.698 528.268 139.807C530.136 137.915 531.594 135.363 532.643 132.15C533.714 128.938 534.249 125.428 534.249 121.623ZM550.997 153L561.559 103.029H575.128L564.566 153H550.997ZM619.903 153H604.352L594.474 117.863H594.2C593.539 124.494 592.89 129.257 592.252 132.15L587.843 153H575.948L586.51 103.029H602.062L611.837 136.628H612.145C612.805 131.25 613.455 127.023 614.093 123.947L618.57 103.029H630.465L619.903 153ZM655.108 123.742H675.958L670.25 150.915C664.553 152.761 658.618 153.684 652.442 153.684C646.495 153.684 641.881 151.952 638.6 148.488C635.318 145.025 633.678 140.114 633.678 133.757C633.678 127.673 634.931 122.181 637.438 117.282C639.944 112.383 643.373 108.658 647.726 106.105C652.101 103.531 657.182 102.243 662.97 102.243C669.031 102.243 674.135 103.462 678.282 105.9L673.258 116.462C669.771 114.411 666.285 113.386 662.799 113.386C659.791 113.386 657.125 114.217 654.801 115.881C652.499 117.521 650.654 119.96 649.264 123.195C647.896 126.431 647.213 129.883 647.213 133.552C647.213 139.567 649.594 142.575 654.356 142.575C655.792 142.575 657.307 142.416 658.902 142.097L660.646 134.167H652.818L655.108 123.742Z" fill="white"/>
</svg>
